Coordinates
version=1
nRows=30
nColumns=19
inDegrees=yes

Units are S.I. units (second, meters, Newtons, ...)
If the header above contains a line with 'inDegrees', this indicates whether rotational values are in degrees (yes) or radians (no).

endheader
time	pelvis_tilt	pelvis_list	pelvis_rotation	pelvis_tx	pelvis_ty	pelvis_tz	hip_flexion_r	hip_adduction_r	hip_rotation_r	knee_angle_r	knee_angle_r_beta	ankle_angle_r	hip_flexion_l	hip_adduction_l	hip_rotation_l	knee_angle_l	knee_angle_l_beta	ankle_angle_l
     16.70000000	     -2.61510142	      4.20075192	     -1.17796759	      2.20990650	      1.02494529	      1.02221210	     -5.17868708	     -9.52829746	     -7.13652259	     49.55038885	      0.86481743	     -9.87513928	     20.25830587	      5.57977569	    -10.90546841	     12.28168765	      0.21435589	      1.25650849
     16.70666667	     -1.88649888	      4.94915592	     -0.74910753	      2.20985217	      1.02137036	      1.02114766	     -4.93332366	    -10.99756782	     -8.29742572	     52.50123094	      0.91631934	     -9.14306912	     19.62575863	      6.46923734	    -11.17774088	     13.93810521	      0.24326583	      1.42882314
     16.71333333	     -1.22495683	      5.64743573	     -0.32237835	      2.20950457	      1.01751876	      1.02006274	     -4.53399921	    -12.43083941	     -9.33828619	     55.48145951	      0.96833414	     -8.42073816	     19.22337469	      7.22024336	    -11.53693725	     16.08356796	      0.28071122	      1.89718634
     16.72000000	     -1.25858335	      5.99637207	      0.20139961	      2.20871949	      1.01270476	      1.01885426	     -3.23593446	    -13.37908972	    -10.00878109	     58.53295655	      1.02159281	     -7.71518636	     19.89598135	      7.49500179	    -11.85882317	     19.03421537	      0.33220973	      2.82563665
     16.72666667	     -0.69160247	      6.51800477	      0.62379315	      2.20784150	      1.00859181	      1.01780834	     -2.56186707	    -14.46907646	    -10.48813233	     61.43875450	      1.07230855	     -6.93128255	     19.73123002	      7.97785786	    -12.00608721	     21.68650736	      0.37850096	      3.96021964
     16.73333333	      0.16038109	      7.14233923	      0.95575891	      2.20667473	      1.00487377	      1.01691320	     -2.11177074	    -15.61474528	    -10.73928629	     64.25016057	      1.12137685	     -6.11571711	     19.16424623	      8.56369938	    -12.05416107	     24.18002586	      0.42202106	      5.24845146
     16.74000000	      0.50515118	      7.39974359	      1.30111948	      2.20509122	      1.00068722	      1.01614625	     -0.90947665	    -16.18473265	    -10.55936926	     67.05607000	      1.17034920	     -5.28637796	     19.27795416	      8.71444342	    -11.98960684	     26.99455556	      0.47114387	      6.93302556
     16.74666667	      1.36160870	      7.84165052	      1.50831943	      2.20333750	      0.99738884	      1.01559306	     -0.21478566	    -16.91399757	    -10.25372928	     69.66745566	      1.21592648	     -4.42729408	     18.60597159	      9.10033404	    -11.79410678	     29.32068988	      0.51174258	      8.59564801
     16.75333333	      2.05490613	      8.11336734	      1.66024252	      2.20128123	      0.99421519	      1.01516024	      0.81513259	    -17.28074879	     -9.58661652	     72.16281491	      1.25947872	     -3.56576779	     18.06125079	      9.30519788	    -11.54068545	     31.55559359	      0.55074901	     10.43336509
     16.76000000	      2.59661893	      8.28433160	      1.71676414	      2.19901736	      0.99130016	      1.01497674	      2.14769668	    -17.36759514	     -8.58273954	     74.50390888	      1.30033852	     -2.73102866	     17.57075842	      9.40418300	    -11.26414703	     33.55887272	      0.58571282	     12.24746715
     16.76666667	      3.17738095	      8.43414150	      1.70535536	      2.19669069	      0.98882931	      1.01488978	      3.49422370	    -17.36836755	     -7.49663963	     76.65067902	      1.33780672	     -1.86858919	     16.86661639	      9.51425178	    -10.93824993	     35.22641007	      0.61481684	     14.08252388
     16.77333333	      3.35958067	      8.42029710	      1.60695171	      2.19426542	      0.98654143	      1.01502085	      5.41110265	    -17.03548094	     -6.13594628	     78.63702107	      1.37247493	     -1.17029187	     16.43755854	      9.44614631	    -10.66446353	     36.58067275	      0.63845318	     15.68078402
     16.78000000	      3.58296392	      8.36804654	      1.50084617	      2.19195830	      0.98477520	      1.01517861	      7.23099431	    -16.59219148	     -4.82042652	     80.33010663	      1.40202485	     -0.42673005	     15.78638886	      9.36407398	    -10.37417435	     37.62182405	      0.65662470	     17.19224109
     16.78666667	      3.81899519	      8.23714884	      1.30570415	      2.18983809	      0.98363376	      1.01545904	      9.01360096	    -15.96892683	     -3.45476056	     81.72952014	      1.42644922	      0.18693574	     14.91089922	      9.18984749	    -10.17912188	     38.29504770	      0.66837467	     18.52452004
     16.79333333	      4.17789862	      8.13058809	      1.47547500	      2.18785385	      0.98321598	      1.01530144	     10.39820932	    -15.46268782	     -2.64665239	     82.75680410	      1.44437871	      0.71353660	     13.70702833	      9.21695616	     -9.43546984	     38.63845673	      0.67436829	     19.57685405
     16.80000000	      3.53184646	      7.72819556	      1.02350314	      2.18633774	      0.98210624	      1.01582432	     13.16823445	    -14.40147568	     -1.06635634	     83.69764155	      1.46079942	      1.25948084	     13.49971251	      8.67523367	     -9.70511558	     38.84398523	      0.67795544	     20.73390947
     16.80666667	      3.55916806	      7.40174793	      1.10407345	      2.18507078	      0.98243079	      1.01566743	     14.74446534	    -13.65854601	     -0.41308229	     84.11108924	      1.46801544	      1.69793173	     12.30345396	      8.46347451	     -9.13077558	     38.60810415	      0.67383854	     21.58560218
     16.81333333	      3.41143752	      6.97979494	      1.15985907	      2.18409650	      0.98307766	      1.01549259	     16.41776124	    -12.82095152	      0.15710558	     84.22896245	      1.47007272	      2.07153916	     11.16815570	      8.14534714	     -8.61158370	     38.15271153	      0.66589043	     22.26265245
     16.82000000	      2.73705189	      6.45120328	      0.77515807	      2.18332913	      0.98338110	      1.01581469	     18.79415645	    -11.67966987	      1.17751182	     84.20813462	      1.46970921	      2.27361743	     10.57441361	      7.54408662	     -8.83594061	     37.64927406	      0.65710379	     22.79148394
     16.82666667	      2.35982356	      5.91657636	      0.95831349	      2.18299920	      0.98466209	      1.01543227	     20.41169347	    -10.89283618	      1.27142999	     83.71590137	      1.46111812	      2.54577542	      9.46363322	      7.14641900	     -8.23154513	     36.81802786	      0.64259581	     23.15355924
     16.83333333	      1.92496706	      5.31612916	      1.07022307	      2.18281951	      0.98623390	      1.01508178	     22.00471066	    -10.04469185	      1.32111171	     82.95017212	      1.44775362	      2.73003517	      8.35092099	      6.66211638	     -7.71727767	     35.85379375	      0.62576675	     23.35648823
     16.84000000	      1.43396336	      4.68375322	      1.20810338	      2.18291784	      0.98808567	      1.01475384	     23.51266635	     -9.24693363	      1.17720350	     81.89799994	      1.42938975	      2.92375075	      7.22839595	      6.13357790	     -7.21974224	     34.75159035	      0.60652967	     23.37573146
     16.84666667	      1.46603698	      4.01130101	      1.36266328	      2.18321151	      0.99094198	      1.01436945	     24.25666799	     -8.50275427	      0.79255912	     80.48360238	      1.40470386	      3.07105514	      5.41002241	      5.55638179	     -6.69427305	     33.37323306	      0.58247280	     23.16645439
     16.85333333	      1.30032191	      3.35232228	      1.60431974	      2.18368150	      0.99381000	      1.01388914	     25.08692921	     -7.87883541	      0.21961179	     78.83219845	      1.37588142	      3.25411526	      3.79378452	      4.99956664	     -6.08470880	     31.94527229	      0.55755018	     22.72849645
     16.86000000	      0.67961301	      2.67034077	      1.79582639	      2.18434091	      0.99632786	      1.01362590	     26.34453433	     -7.19462150	     -0.31885032	     77.00102553	      1.34392142	      3.37371385	      2.70799547	      4.37929457	     -5.62481679	     30.57160205	      0.53357511	     22.06535893
     16.86666667	      1.10127390	      2.01925572	      2.05136986	      2.18526040	      1.00035647	      1.01318565	     26.21049587	     -6.70764114	     -1.22284955	     74.76488594	      1.30489342	      3.51918188	      0.30855816	      3.76413661	     -5.11219961	     28.78932825	      0.50246857	     21.08752210
     16.87333333	      0.36918952	      1.36802539	      2.20487030	      2.18619066	      1.00305884	      1.01304189	     27.36640902	     -6.12145893	     -1.91655929	     72.47917965	      1.26500032	      3.54330189	     -0.63022023	      3.12905297	     -4.81151869	     27.39113100	      0.47806542	     19.88278058
     16.88000000	      0.87910641	      0.76757031	      2.40965178	      2.18740786	      1.00744022	      1.01271421	     26.90333802	     -5.69633971	     -2.93021615	     69.78153363	      1.21791752	      3.55979608	     -3.14440659	      2.50978249	     -4.48898869	     25.48419231	      0.44478306	     18.33491322
     16.88666667	     -0.09034912	      0.26221489	      2.49341026	      2.18862438	      1.00980955	      1.01269041	     28.13291349	     -5.34695726	     -3.77453899	     67.16723731	      1.17228944	      3.57940066	     -3.67751883	      1.93725828	     -4.66059500	     24.32950196	      0.42462991	     16.71715294
     16.89333333	      0.44923932	     -0.33747400	      2.58094015	      2.19000837	      1.01451926	      1.01266861	     27.41200492	     -4.74281233	     -4.66033467	     63.98067865	      1.11667350	      3.24455482	     -6.23262905	      1.32989524	     -4.32650113	     22.28450491	      0.38893798	     14.53973929
